<?xml version="1.0" encoding="UTF-8"?>
<svg id="Layer_1" data-name="Layer 1" xmlns="http://www.w3.org/2000/svg" viewBox="0 0 64 64">
  <rect x="25" y="56" width="24" height="2"/>
  <rect x="25" y="52" width="8" height="2"/>
  <path d="m38,1h-12c-.55,0-1,.45-1,1v1h-11c-1.65,0-3,1.35-3,3v54c0,1.65,1.35,3,3,3h36c1.65,0,3-1.35,3-3V6c0-1.65-1.35-3-3-3h-11v-1c0-.55-.45-1-1-1Zm-11,2h10v2h-10v-2Zm23,2c.55,0,1,.45,1,1v54c0,.55-.45,1-1,1H14c-.55,0-1-.45-1-1V6c0-.55.45-1,1-1h11v1c0,.55.45,1,1,1h12c.55,0,1-.45,1-1v-1h11Z"/>
  <path d="m22,51h-6c-.55,0-1,.45-1,1v6c0,.55.45,1,1,1h6c.55,0,1-.45,1-1v-6c0-.55-.45-1-1-1Zm-1,6h-4v-4h4v4Z"/>
  <path d="m38.71,54.71l4-4-1.41-1.41-3.37,3.37-1.3-1.04-1.25,1.56,2,1.6c.18.15.4.22.62.22.26,0,.51-.1.71-.29Z"/>
  <rect x="25" y="44" width="24" height="2"/>
  <rect x="25" y="40" width="8" height="2"/>
  <path d="m22,39h-6c-.55,0-1,.45-1,1v6c0,.55.45,1,1,1h6c.55,0,1-.45,1-1v-6c0-.55-.45-1-1-1Zm-1,6h-4v-4h4v4Z"/>
  <path d="m38.71,42.71l4-4-1.41-1.41-3.37,3.37-1.3-1.04-1.25,1.56,2,1.6c.18.15.4.22.62.22.26,0,.51-.1.71-.29Z"/>
  <rect x="25" y="32" width="24" height="2"/>
  <rect x="25" y="28" width="8" height="2"/>
  <path d="m22,27h-6c-.55,0-1,.45-1,1v6c0,.55.45,1,1,1h6c.55,0,1-.45,1-1v-6c0-.55-.45-1-1-1Zm-1,6h-4v-4h4v4Z"/>
  <path d="m38.71,30.71l4-4-1.41-1.41-3.37,3.37-1.3-1.04-1.25,1.56,2,1.6c.18.15.4.22.62.22.26,0,.51-.1.71-.29Z"/>
  <rect x="25" y="20" width="24" height="2"/>
  <rect x="25" y="16" width="8" height="2"/>
  <path d="m22,15h-6c-.55,0-1,.45-1,1v6c0,.55.45,1,1,1h6c.55,0,1-.45,1-1v-6c0-.55-.45-1-1-1Zm-1,6h-4v-4h4v4Z"/>
  <path d="m36.62,15.62l-1.25,1.56,2,1.6c.18.15.4.22.62.22.26,0,.51-.1.71-.29l4-4-1.41-1.41-3.37,3.37-1.3-1.04Z"/>
</svg>